<svg width="108" height="105" viewBox="0 0 108 105" fill="none" xmlns="http://www.w3.org/2000/svg">
<path d="M19.125 0H88.875C99.45 0 108 8.52564 108 19.0705V85.9295C108 96.4744 99.45 105 88.875 105H19.125C8.55 105 0 96.4744 0 85.9295V19.0705C0 8.52564 8.55 0 19.125 0Z" fill="#1D1B1B"/>
<g clip-path="url(#clip0_4_234)">
<path fill-rule="evenodd" clip-rule="evenodd" d="M50 79.0646H55.8063V50.4194L50 48.4839V79.0646Z" fill="white"/>
<path fill-rule="evenodd" clip-rule="evenodd" d="M67.0322 37.7741C66.9677 41.6451 65.7419 43.6451 63.1612 43.6451C60.516 43.6451 57.8064 42.2258 54.1935 40.4838C49.2902 38.1613 46.9677 37.5161 43.9354 37.5161C38.9677 37.5161 35.0967 41.6451 35.3549 48.7419H39.6774C39.7419 44.2258 41.3549 42.2258 43.9354 42.2258C46.516 42.2258 49.2257 43.5806 52.5805 45.2581C57.5484 47.5161 60.129 48.5484 63.0322 48.5484C67.4839 48.5484 71.6129 46.1613 71.2902 37.7741H67.0322Z" fill="white"/>
<path fill-rule="evenodd" clip-rule="evenodd" d="M53.9355 15C31.9355 15 14 32.9355 14 54.9355C14 76.9355 31.9355 94.871 53.9355 94.871C75.9355 94.871 93.871 76.9355 93.871 54.9355C93.871 32.9355 76 15 53.9355 15ZM53.9355 92.2903C33.3548 92.2903 16.5807 75.5807 16.5807 54.9355C16.5807 34.2903 33.3548 17.5807 53.9355 17.5807C74.5162 17.5807 91.2903 34.3548 91.2903 54.9355C91.2903 75.5162 74.5162 92.2903 53.9355 92.2903Z" fill="white"/>
</g>
<defs>
<clipPath id="clip0_4_234">
<rect width="80" height="80" fill="white" transform="translate(14 15)"/>
</clipPath>
</defs>
</svg>
