<svg width="511" height="317" viewBox="0 0 511 317" fill="none" xmlns="http://www.w3.org/2000/svg">
<g clip-path="url(#clip0_1_97)">
<path d="M388.466 282.047C452.366 282.047 504.167 230.48 504.167 166.87C504.167 103.26 452.366 51.6933 388.466 51.6933C324.566 51.6933 272.765 103.26 272.765 166.87C272.765 230.48 324.566 282.047 388.466 282.047Z" fill="#F2F2F2"/>
<path d="M62.7728 87.9697C87.1755 87.9697 106.958 68.277 106.958 43.9849C106.958 19.6927 87.1755 0 62.7728 0C38.3701 0 18.5878 19.6927 18.5878 43.9849C18.5878 68.277 38.3701 87.9697 62.7728 87.9697Z" fill="#FF6584"/>
<path d="M142.032 236.248C205.932 236.248 257.733 184.682 257.733 121.071C257.733 57.4611 205.932 5.89467 142.032 5.89467C78.1326 5.89467 26.3315 57.4611 26.3315 121.071C26.3315 184.682 78.1326 236.248 142.032 236.248Z" fill="#F2F2F2"/>
<path d="M136.566 242.597C206.755 242.597 263.655 239.552 263.655 235.795C263.655 232.039 206.755 228.993 136.566 228.993C66.3771 228.993 9.47748 232.039 9.47748 235.795C9.47748 239.552 66.3771 242.597 136.566 242.597Z" fill="#3F3D56"/>
<path opacity="0.1" d="M111.057 240.72C163.636 240.72 206.26 238.62 206.26 236.03C206.26 233.439 163.636 231.339 111.057 231.339C58.4784 231.339 15.8547 233.439 15.8547 236.03C15.8547 238.62 58.4784 240.72 111.057 240.72Z" fill="black"/>
<path d="M383.911 290.663C454.1 290.663 511 287.313 511 283.181C511 279.049 454.1 275.699 383.911 275.699C313.722 275.699 256.822 279.049 256.822 283.181C256.822 287.313 313.722 290.663 383.911 290.663Z" fill="#3F3D56"/>
<path opacity="0.1" d="M358.402 288.599C410.981 288.599 453.605 286.288 453.605 283.439C453.605 280.589 410.981 278.279 358.402 278.279C305.823 278.279 263.199 280.589 263.199 283.439C263.199 286.288 305.823 288.599 358.402 288.599Z" fill="black"/>
<path d="M182.618 269.804C227.409 269.804 263.719 267.977 263.719 265.723C263.719 263.469 227.409 261.642 182.618 261.642C137.826 261.642 101.516 263.469 101.516 265.723C101.516 267.977 137.826 269.804 182.618 269.804Z" fill="#3F3D56"/>
<path d="M39.1301 254.088C60.7411 254.088 78.2603 253.207 78.2603 252.119C78.2603 251.032 60.7411 250.15 39.1301 250.15C17.5192 250.15 0 251.032 0 252.119C0 253.207 17.5192 254.088 39.1301 254.088Z" fill="#3F3D56"/>
<path d="M434.073 317C474.294 317 506.9 315.359 506.9 313.335C506.9 311.311 474.294 309.671 434.073 309.671C393.851 309.671 361.245 311.311 361.245 313.335C361.245 315.359 393.851 317 434.073 317Z" fill="#3F3D56"/>
<path d="M426.274 196.345H280.509V282.501H426.274V196.345Z" fill="#3F3D56"/>
<path d="M327.427 272.978C345.541 272.978 360.224 258.361 360.224 240.33C360.224 222.298 345.541 207.681 327.427 207.681C309.314 207.681 294.63 222.298 294.63 240.33C294.63 258.361 309.314 272.978 327.427 272.978Z" fill="#6C63FF"/>
<path d="M381.178 209.948H370.246V220.831H381.178V209.948Z" fill="#6C63FF"/>
<path opacity="0.5" d="M394.844 209.948H383.911V220.831H394.844V209.948Z" fill="#6C63FF"/>
<path opacity="0.2" d="M408.509 209.948H397.577V220.831H408.509V209.948Z" fill="#6C63FF"/>
<path d="M381.178 223.552H370.246V234.435H381.178V223.552Z" fill="#2F2E41"/>
<path opacity="0.5" d="M394.844 223.552H383.911V234.435H394.844V223.552Z" fill="#2F2E41"/>
<path opacity="0.2" d="M408.509 223.552H397.577V234.435H408.509V223.552Z" fill="#2F2E41"/>
<path d="M381.178 237.155H370.246V248.038H381.178V237.155Z" fill="#FF6584"/>
<path opacity="0.5" d="M394.844 237.155H383.911V248.038H394.844V237.155Z" fill="#FF6584"/>
<path opacity="0.2" d="M408.509 237.155H397.577V248.038H408.509V237.155Z" fill="#FF6584"/>
<path opacity="0.5" d="M327.427 207.681V272.978C345.54 272.978 361.135 258.361 361.135 240.33C361.135 222.298 345.54 207.681 327.427 207.681Z" fill="#3F3D56"/>
<path d="M457.477 202.466C457.477 202.466 476.609 211.082 469.776 221.058C462.943 231.034 442.445 250.079 441.989 254.16C441.534 258.241 438.801 261.869 438.801 261.869C438.801 261.869 429.69 252.346 430.601 251.439C431.512 250.532 440.623 241.917 441.078 239.649C441.534 237.382 455.199 219.697 455.199 219.697L442.9 208.815L457.477 202.466Z" fill="#FFB9B9"/>
<path opacity="0.1" d="M457.477 202.466C457.477 202.466 476.609 211.082 469.776 221.058C462.943 231.034 442.445 250.079 441.989 254.16C441.534 258.241 438.801 261.869 438.801 261.869C438.801 261.869 429.69 252.346 430.601 251.439C431.512 250.532 440.623 241.917 441.078 239.649C441.534 237.382 455.199 219.697 455.199 219.697L442.9 208.815L457.477 202.466Z" fill="black"/>
<path d="M433.335 221.511C433.335 221.511 446.545 226.953 445.634 235.568C444.722 244.184 461.577 268.67 461.577 268.67C461.577 268.67 463.399 274.565 462.943 276.379C462.488 278.193 474.787 277.739 474.787 277.739V273.658C474.787 273.658 465.221 257.334 464.31 252.799C463.399 248.265 457.932 230.58 457.932 230.58C457.932 230.58 456.11 214.71 447 214.71C444.348 214.71 441.733 215.324 439.361 216.505C436.989 217.685 434.926 219.399 433.335 221.511Z" fill="#FFB9B9"/>
<path d="M434.018 180.474C434.018 180.474 461.349 202.693 460.438 204.507C459.527 206.321 446.317 213.122 444.039 213.576C441.762 214.029 425.647 180.474 425.647 180.474H434.018Z" fill="#2F2E41"/>
<path opacity="0.1" d="M434.018 180.474C434.018 180.474 461.349 202.693 460.438 204.507C459.527 206.321 446.317 213.122 444.039 213.576C441.762 214.029 425.647 180.474 425.647 180.474H434.018Z" fill="black"/>
<path d="M404.409 185.008C404.409 185.008 401.676 197.252 408.965 202.24C416.253 207.228 428.552 226.726 429.918 226.726C431.285 226.726 450.872 216.297 449.961 214.483C449.05 212.669 439.029 196.798 439.029 196.798L435.84 180.02C435.84 180.02 408.053 179.114 404.409 185.008Z" fill="#2F2E41"/>
<path d="M434.018 145.105L438.117 171.405L445.406 189.996C445.406 189.996 456.338 201.333 449.961 202.24C443.584 203.146 439.94 189.996 439.94 189.996L434.018 179.114V145.105Z" fill="#FFB9B9"/>
<path opacity="0.1" d="M434.018 145.105L438.117 171.405L445.406 189.996C445.406 189.996 456.338 201.333 449.961 202.24C443.584 203.146 439.94 189.996 439.94 189.996L434.018 179.114V145.105Z" fill="black"/>
<path d="M418.758 115.857C418.758 115.857 418.758 125.379 415.57 126.286C412.381 127.193 428.324 139.436 428.324 139.436C428.324 139.436 426.502 123.566 432.879 119.485L418.758 115.857Z" fill="#FFB9B9"/>
<path opacity="0.1" d="M418.758 115.857C418.758 115.857 418.758 125.379 415.57 126.286C412.381 127.193 428.324 139.436 428.324 139.436C428.324 139.436 426.502 123.566 432.879 119.485L418.758 115.857Z" fill="black"/>
<path d="M426.046 123.566C431.832 123.566 436.523 118.896 436.523 113.136C436.523 107.376 431.832 102.707 426.046 102.707C420.26 102.707 415.569 107.376 415.569 113.136C415.569 118.896 420.26 123.566 426.046 123.566Z" fill="#FFB9B9"/>
<path d="M426.502 134.902C426.502 134.902 416.936 123.112 415.57 123.566C414.203 124.019 404.182 133.995 403.271 137.169C402.36 140.343 400.538 163.016 401.904 167.55C403.271 172.085 403.271 183.875 402.815 184.782C402.36 185.689 399.626 187.956 402.36 187.956C405.093 187.956 414.658 181.154 421.036 182.514C427.413 183.875 436.068 182.061 436.523 181.154C436.979 180.247 436.068 156.668 436.523 154.854C436.979 153.04 435.612 143.971 435.157 142.157C434.701 140.343 434.701 133.088 430.146 131.274L428.204 131.083L428.095 135.569L426.502 134.902Z" fill="#6C63FF"/>
<path d="M406.459 158.481C406.459 158.481 407.37 172.538 414.203 178.433C421.036 184.328 435.612 194.304 436.523 196.118C437.434 197.932 446.089 207.454 447.911 203.373C448.44 202.101 448.567 200.699 448.276 199.353C448.012 198.015 447.475 196.745 446.699 195.621C445.924 194.497 444.925 193.543 443.765 192.817L439.712 190.223L419.669 169.364L418.758 158.481H406.459Z" fill="#FFB9B9"/>
<path d="M432.651 249.852C432.651 249.852 427.413 248.718 425.591 251.893C423.769 255.067 427.413 263.682 427.413 263.682C427.413 263.682 437.89 285.448 439.712 282.727C441.534 280.007 438.345 270.031 438.345 270.031C438.345 270.031 442.9 260.055 441.078 259.601C439.256 259.148 432.651 255.293 432.651 249.852Z" fill="#2F2E41"/>
<path d="M464.765 275.925C464.765 275.925 462.032 274.565 461.577 275.925C461.121 277.286 458.388 284.088 461.577 284.995C464.765 285.901 496.196 286.808 495.285 284.995C494.374 283.181 489.363 280.913 486.174 280.007C482.986 279.1 474.787 272.298 474.787 272.298C474.787 272.298 470.231 278.193 464.765 275.925Z" fill="#2F2E41"/>
<path d="M436.6 104.859C436.404 104.201 435.971 103.638 435.383 103.278C435.414 102.573 435.327 101.868 435.127 101.191C434.457 99.221 432.871 99.3339 431.375 98.463C430.726 98.0851 430.766 97.7511 430.428 97.1304C429.985 96.3168 429.322 95.6432 428.514 95.1861C427.554 94.5773 426.541 93.9503 425.405 93.8732C423.019 93.7113 421.189 95.9457 418.908 96.6628C417.903 96.9789 416.822 96.992 415.812 97.2908C414.801 97.5896 413.793 98.3031 413.642 99.3418C413.573 99.8214 413.695 100.313 413.625 100.793C413.485 101.746 412.645 102.413 412.083 103.197C410.839 104.93 410.982 107.378 411.976 109.264C412.185 109.654 412.425 110.028 412.693 110.381C412.776 111.272 413.033 112.139 413.45 112.932C414.444 114.818 416.154 116.227 417.942 117.398C417.795 116.772 417.706 116.135 417.677 115.493C417.651 115.28 417.679 115.063 417.758 114.862C417.957 114.448 418.483 114.338 418.884 114.111C419.714 113.642 420.04 112.602 420.064 111.651C420.088 110.701 419.886 109.748 419.986 108.803C419.99 108.585 420.039 108.371 420.131 108.174C420.224 107.977 420.356 107.801 420.521 107.658C420.827 107.484 421.177 107.401 421.53 107.418C423.232 107.349 425.009 107.318 426.51 106.517C426.994 106.197 427.515 105.935 428.061 105.737C429.336 105.405 430.64 106.295 431.375 107.385C432.11 108.474 432.476 109.77 433.155 110.895C433.833 112.021 435.005 113.024 436.316 112.891C436.39 112.891 436.463 112.875 436.531 112.846C436.598 112.816 436.658 112.772 436.708 112.717C436.764 112.616 436.789 112.501 436.78 112.385L436.853 107.395C436.914 106.542 436.829 105.684 436.6 104.859Z" fill="#2F2E41"/>
<path d="M410.559 135.355C410.559 135.355 420.58 139.89 420.125 149.412C419.669 158.935 422.858 159.842 415.114 160.749C407.37 161.656 405.548 160.749 405.093 161.656C404.637 162.563 401.904 140.797 403.726 138.53C405.548 136.262 410.559 135.355 410.559 135.355Z" fill="#6C63FF"/>
<path d="M208.993 58.4953C217.044 58.4953 223.57 51.9987 223.57 43.9848C223.57 35.9709 217.044 29.4744 208.993 29.4744C200.943 29.4744 194.417 35.9709 194.417 43.9848C194.417 51.9987 200.943 58.4953 208.993 58.4953Z" fill="#2F2E41"/>
<path d="M218.787 202.92L210.588 225.139C210.588 225.139 203.755 230.58 207.854 232.394C211.954 234.208 220.153 230.58 220.153 230.58L226.531 214.256L225.62 202.92H218.787Z" fill="#2F2E41"/>
<path opacity="0.1" d="M218.787 202.92L210.588 225.139C210.588 225.139 203.755 230.58 207.854 232.394C211.954 234.208 220.153 230.58 220.153 230.58L226.531 214.256L225.62 202.92H218.787Z" fill="black"/>
<path d="M219.47 71.192L226.303 72.0989C226.303 72.0989 229.491 97.0387 228.125 98.8525C226.758 100.666 219.926 107.922 217.193 106.108C214.459 104.294 219.47 71.192 219.47 71.192Z" fill="#575A89"/>
<path d="M154.104 116.764C154.104 116.764 144.538 120.845 142.716 121.298C140.894 121.752 138.161 126.286 141.349 127.193C144.538 128.1 156.837 119.031 156.837 119.031L154.104 116.764Z" fill="#A0616A"/>
<path d="M221.975 211.989L226.986 230.58C226.986 230.58 227.442 237.382 229.719 237.835C231.997 238.289 238.829 235.568 238.829 234.661C238.829 233.754 236.096 226.499 236.096 226.499C236.096 226.499 236.096 221.058 233.363 218.791C230.63 216.523 228.168 208.928 228.168 208.928L221.975 211.989Z" fill="#2F2E41"/>
<path d="M228.353 169.364C229.273 171.5 229.159 186.994 228.152 197.306C227.665 202.317 226.968 206.103 226.075 206.547L219.547 204.924L216.965 204.28L216.896 198.639L216.509 167.55L208.765 135.355V127.193L228.353 129.007L231.459 133.864L231.541 133.995C231.541 133.995 226.986 166.19 228.353 169.364Z" fill="#2F2E41"/>
<path opacity="0.1" d="M224.253 179.34C225.228 180.796 226.854 189.511 228.152 197.306C227.665 202.317 226.968 206.103 226.075 206.547L219.547 204.924C219.447 204.715 219.347 204.498 219.242 204.28C218.409 202.539 217.625 200.616 216.896 198.639L216.509 167.55L208.765 135.355V127.193L228.353 129.007L231.459 133.864L213.321 132.635L217.42 150.319L222.431 168.911C222.431 168.911 222.431 176.62 224.253 179.34Z" fill="black"/>
<path d="M191.911 109.055C191.911 109.055 185.534 123.112 194.645 142.611C200.282 154.745 205.299 167.155 209.677 179.794C209.677 179.794 212.865 194.758 217.42 204.28C221.976 213.803 221.064 214.256 221.064 214.256L228.353 210.175C228.353 210.175 224.253 182.061 222.431 179.34C220.609 176.62 220.609 168.911 220.609 168.911L215.598 150.319L211.499 132.635L231.541 133.995C231.541 133.995 231.541 108.148 222.431 103.16L191.911 109.055Z" fill="#2F2E41"/>
<path d="M199.427 50.7866C199.427 50.7866 199.427 58.0419 197.15 58.4953C194.872 58.9488 190.317 58.9488 188.951 61.216C187.584 63.4833 199.427 93.4111 199.427 93.4111L211.726 85.7024L215.826 65.2971C215.826 65.2971 209.904 61.6695 209.904 59.8557V51.6935L199.427 50.7866Z" fill="#A0616A"/>
<path opacity="0.1" d="M199.427 50.7866C199.427 50.7866 199.427 58.0419 197.15 58.4953C194.872 58.9488 190.317 58.9488 188.951 61.216C187.584 63.4833 199.427 93.4111 199.427 93.4111L211.726 85.7024L215.826 65.2971C215.826 65.2971 209.904 61.6695 209.904 59.8557V51.6935L199.427 50.7866Z" fill="black"/>
<path d="M206.488 58.722C212.526 58.722 217.42 53.8496 217.42 47.8392C217.42 41.8287 212.526 36.9563 206.488 36.9563C200.45 36.9563 195.555 41.8287 195.555 47.8392C195.555 53.8496 200.45 58.722 206.488 58.722Z" fill="#A0616A"/>
<path d="M200.794 84.3421C200.794 84.3421 196.694 58.4953 195.783 58.4953C194.872 58.4953 182.118 61.216 181.207 61.6695C180.296 62.1229 177.107 66.204 177.107 66.204L183.484 84.3421C183.484 84.3421 186.217 97.0387 188.039 99.306C189.861 101.573 193.506 107.922 191.684 108.828C189.861 109.735 188.039 111.096 189.861 111.096C191.684 111.096 206.716 108.375 207.627 109.735C208.538 111.096 223.57 104.747 223.57 104.294C223.57 103.841 221.748 82.5283 221.748 82.5283L226.303 72.0989L212.637 62.5764L200.794 84.3421Z" fill="#575A89"/>
<path d="M181.662 63.9367L177.107 66.204C177.107 66.204 164.353 95.2249 163.442 95.6784C162.531 96.1318 157.976 104.747 157.52 106.561C157.065 108.375 156.154 114.27 154.787 115.177C154.054 115.672 153.294 116.126 152.509 116.537C152.509 116.537 155.242 121.072 156.609 121.072C157.976 121.072 162.531 114.723 162.531 114.723C162.531 114.723 172.552 121.072 175.285 116.084C178.018 111.096 184.851 79.3541 184.851 79.3541L181.662 63.9367Z" fill="#575A89"/>
<path d="M217.42 77.767C217.42 77.767 211.043 62.3496 207.399 64.1634C203.755 65.9773 210.132 76.8601 214.232 78.6739L217.42 77.767Z" fill="#A0616A"/>
<path opacity="0.1" d="M211.043 78.2205L217.434 76.7823L218.787 83.6619C218.787 83.6619 224.708 94.0913 223.342 98.6259C221.975 103.16 213.776 110.416 211.043 106.335C208.31 102.253 206.032 95.9051 207.854 92.2775C209.676 88.6499 212.41 80.0343 211.043 78.2205Z" fill="black"/>
<path d="M212.41 77.3136L218.801 75.8754L220.153 82.755C220.153 82.755 226.075 93.1844 224.708 97.719C223.342 102.253 215.143 109.509 212.41 105.428C209.676 101.347 207.399 94.9982 209.221 91.3706C211.043 87.743 213.776 79.1274 212.41 77.3136Z" fill="#575A89"/>
<path d="M219.349 45.6541C220.576 43.0461 217.139 38.8649 211.671 36.3152C206.203 33.7654 200.776 33.8126 199.549 36.4207C198.322 39.0287 201.759 43.2098 207.227 45.7596C212.694 48.3093 218.121 48.2621 219.349 45.6541Z" fill="#2F2E41"/>
<path d="M217.648 38.09C221.17 38.09 224.025 35.2477 224.025 31.7416C224.025 28.2356 221.17 25.3933 217.648 25.3933C214.126 25.3933 211.271 28.2356 211.271 31.7416C211.271 35.2477 214.126 38.09 217.648 38.09Z" fill="#2F2E41"/>
<path d="M211.726 29.4744C211.726 27.9086 212.308 26.3982 213.359 25.2333C214.41 24.0684 215.856 23.3313 217.42 23.1636C216.53 23.0667 215.629 23.1578 214.776 23.4308C213.923 23.7038 213.137 24.1526 212.47 24.748C211.803 25.3434 211.27 26.072 210.905 26.8864C210.539 27.7007 210.351 28.5825 210.351 29.4744C210.351 30.3662 210.539 31.248 210.905 32.0624C211.27 32.8767 211.803 33.6053 212.47 34.2007C213.137 34.7961 213.923 35.2449 214.776 35.5179C215.629 35.7909 216.53 35.882 217.42 35.7852C215.856 35.6174 214.41 34.8803 213.359 33.7154C212.308 32.5506 211.726 31.0401 211.726 29.4744Z" fill="#2F2E41"/>
<path d="M188.951 125.606H29.5201V235.795H188.951V125.606Z" fill="#3F3D56"/>
<path d="M63.2283 136.489H42.2746V157.348H63.2283V136.489Z" fill="#F2F2F2"/>
<path d="M63.2283 170.498H42.2746V191.357H63.2283V170.498Z" fill="#6C63FF"/>
<path d="M63.2283 204.507H42.2746V225.366H63.2283V204.507Z" fill="#F2F2F2"/>
<path d="M173.008 143.064H73.2496V144.878H173.008V143.064Z" fill="#F2F2F2"/>
<path d="M104.225 148.959H73.2496V150.773H104.225V148.959Z" fill="#F2F2F2"/>
<path d="M173.008 177.073H73.2496V178.887H173.008V177.073Z" fill="#F2F2F2"/>
<path d="M104.225 182.968H73.2496V184.782H104.225V182.968Z" fill="#F2F2F2"/>
<path d="M173.008 211.082H73.2496V212.896H173.008V211.082Z" fill="#F2F2F2"/>
<path d="M104.225 216.977H73.2496V218.791H104.225V216.977Z" fill="#F2F2F2"/>
<path d="M450.872 303.329C450.872 312.559 445.36 315.782 438.56 315.782C438.403 315.782 438.245 315.78 438.089 315.777C437.774 315.77 437.461 315.755 437.153 315.734C431.016 315.302 426.248 311.913 426.248 303.329C426.248 294.447 437.65 283.238 438.509 282.406L438.51 282.405C438.543 282.372 438.56 282.357 438.56 282.357C438.56 282.357 450.872 294.099 450.872 303.329Z" fill="#6C63FF"/>
<path d="M438.111 314.37L442.615 308.107L438.1 315.058L438.089 315.777C437.774 315.77 437.461 315.755 437.153 315.734L437.638 306.5L437.634 306.428L437.642 306.415L437.689 305.542L433.163 298.574L437.702 304.888L437.714 305.073L438.08 298.096L434.205 290.896L438.127 296.872L438.509 282.406L438.51 282.357V282.405L438.447 293.812L442.304 289.289L438.431 294.794L438.329 301.041L441.931 295.046L438.314 301.961L438.258 305.434L443.485 297.089L438.237 306.645L438.111 314.37Z" fill="#3F3D56"/>
<path d="M51.3849 240.299C51.3849 249.53 45.8732 252.752 39.0731 252.752C38.9156 252.752 38.7581 252.75 38.6017 252.747C38.2867 252.74 37.974 252.725 37.6657 252.704C31.5286 252.272 26.7614 248.883 26.7614 240.299C26.7614 231.417 38.1632 220.208 39.0221 219.376L39.0233 219.375C39.0561 219.343 39.0731 219.327 39.0731 219.327C39.0731 219.327 51.3849 231.069 51.3849 240.299Z" fill="#6C63FF"/>
<path d="M38.6243 251.34L43.1275 245.077L38.613 252.028L38.6017 252.747C38.2866 252.74 37.9739 252.725 37.6657 252.704L38.1507 243.47L38.1473 243.398L38.1552 243.385L38.2017 242.512L33.6758 235.544L38.2153 241.858L38.2266 242.043L38.5926 235.066L34.7183 227.866L38.6402 233.842L39.0221 219.376L39.0232 219.327V219.375L38.9597 230.782L42.817 226.26L38.9439 231.764L38.8419 238.011L42.4442 232.016L38.8272 238.931L38.7705 242.404L43.9978 234.059L38.7501 243.615L38.6243 251.34Z" fill="#3F3D56"/>
</g>
<defs>
<clipPath id="clip0_1_97">
<rect width="511" height="317" fill="white"/>
</clipPath>
</defs>
</svg>
